<?xml version="1.0" standalone="no"?>
<!DOCTYPE svg PUBLIC "-//W3C//DTD SVG 20010904//EN"
 "http://www.w3.org/TR/2001/REC-SVG-20010904/DTD/svg10.dtd">
<svg version="1.0" xmlns="http://www.w3.org/2000/svg"
 width="300.000000pt" height="327.000000pt" viewBox="0 0 300.000000 327.000000"
 preserveAspectRatio="xMidYMid meet">
<metadata>
Created by potrace 1.10, written by Peter Selinger 2001-2011
</metadata>
<g transform="translate(0.000000,327.000000) scale(0.100000,-0.100000)"
fill="#000000" stroke="none">
<path d="M1541 2963 c-34 -17 -35 -17 -10 -24 l24 -7 -26 -1 c-14 -1 -42 -12
-62 -26 -20 -13 -39 -20 -42 -15 -3 4 -22 3 -42 -3 -34 -11 -35 -12 -12 -18
24 -7 24 -7 -3 -8 -50 -2 -132 -67 -133 -106 0 -5 -4 -16 -9 -23 -4 -7 -6 -16
-3 -19 8 -7 67 29 67 41 0 5 -8 1 -19 -8 -16 -14 -19 -15 -24 -2 -3 8 3 21 16
29 12 8 35 26 51 40 34 29 99 51 128 41 13 -4 18 -2 14 4 -8 13 51 35 87 33
15 -2 27 2 27 8 0 6 8 11 17 11 15 0 14 2 -3 14 -10 8 -16 18 -11 22 4 4 7 2
7 -4 0 -6 7 -9 15 -6 9 4 34 -6 56 -20 22 -15 46 -25 52 -22 8 3 8 5 -2 5 -16
1 -77 51 -62 51 6 0 50 -20 99 -45 106 -53 157 -96 149 -126 -7 -28 2 -49 21
-49 13 0 13 2 -1 18 -22 24 -8 45 17 26 11 -8 17 -14 13 -14 -7 0 45 -101 64
-126 4 -5 6 -20 2 -32 -3 -13 -1 -22 6 -22 10 0 16 21 12 43 0 4 4 7 9 7 6 0
4 10 -4 23 -8 12 -16 33 -18 47 -2 14 -13 34 -25 45 -41 38 -63 55 -72 55 -5
0 -11 4 -13 9 -1 4 -24 32 -51 61 -26 29 -44 44 -40 34 6 -16 4 -17 -8 -7 -8
6 -41 26 -74 43 -75 39 -137 47 -184 23z"/>
<path d="M1792 2843 c15 -15 30 -24 34 -21 8 8 -32 48 -48 48 -7 0 0 -12 14
-27z"/>
<path d="M1380 2830 c0 -5 -5 -9 -11 -7 -6 1 -13 -6 -14 -15 -3 -14 0 -16 15
-8 11 6 22 15 25 20 4 6 11 8 16 5 5 -4 9 -1 9 4 0 6 -9 11 -20 11 -11 0 -20
-4 -20 -10z"/>
<path d="M1610 2799 c0 -6 -4 -8 -9 -5 -5 4 -11 2 -13 -4 -2 -7 -14 -7 -36 -1
-18 5 -30 6 -28 2 3 -4 -11 -8 -31 -8 -19 -1 -40 -6 -46 -12 -6 -6 -17 -11
-25 -11 -12 0 -12 3 -1 18 12 16 12 16 -6 0 -10 -9 -19 -28 -21 -42 -2 -22 0
-25 16 -16 10 5 20 15 22 20 2 6 20 12 40 13 20 1 40 5 43 9 4 4 14 4 22 1 8
-3 19 0 24 8 6 9 9 10 9 2 0 -8 11 -10 34 -6 60 10 161 -16 224 -56 69 -45
108 -88 161 -180 64 -109 71 -151 68 -414 -3 -224 4 -261 24 -135 6 35 14 65
19 68 4 3 11 37 14 75 3 39 9 89 12 112 8 53 -2 97 -19 86 -9 -5 -9 -3 -1 8 9
10 8 26 -3 64 -17 59 -21 82 -22 114 -1 16 -5 21 -16 17 -9 -3 -15 0 -15 9 0
21 19 29 26 11 13 -34 26 -15 19 27 -8 47 -50 137 -65 137 -5 0 2 -19 15 -41
13 -23 21 -49 17 -57 -3 -10 -1 -13 6 -8 7 4 12 2 12 -3 0 -6 -12 -11 -27 -12
-24 0 -25 -2 -9 -8 24 -9 10 -19 -24 -17 -21 2 -28 12 -45 59 -11 32 -24 56
-30 54 -5 -2 -14 0 -20 5 -59 48 -96 71 -131 81 -26 6 -46 19 -52 31 -9 21 -9
21 -16 -1 -6 -20 -10 -21 -29 -10 -12 7 -24 14 -27 17 -10 10 -60 9 -60 -1z"/>
<path d="M1150 2794 c0 -3 9 -19 21 -35 18 -26 19 -33 8 -67 -6 -20 -25 -52
-40 -70 -16 -18 -35 -46 -44 -62 -25 -49 -40 -177 -37 -322 1 -88 -1 -138 -8
-138 -15 0 -12 -28 4 -37 7 -4 16 -31 19 -59 3 -28 15 -68 26 -90 23 -46 32
-145 14 -151 -7 -3 -13 2 -13 9 0 8 -6 20 -12 26 -7 7 -20 50 -30 95 -14 72
-16 77 -17 37 0 -57 24 -161 41 -172 7 -4 23 -6 34 -3 18 4 23 -1 28 -26 3
-17 6 -43 6 -57 0 -32 30 -112 41 -112 14 0 10 29 -7 55 -9 14 -16 41 -16 62
0 21 -6 52 -13 68 -7 17 -16 55 -20 85 -4 30 -13 83 -21 117 -11 49 -12 77 -4
125 5 35 7 98 3 141 -4 55 -3 77 6 77 7 0 11 21 11 58 0 62 -12 96 -24 67 -3
-9 -4 -21 -1 -25 3 -5 1 -11 -5 -15 -27 -17 -3 52 31 89 11 11 19 24 19 28 0
5 20 31 45 57 44 47 44 48 18 44 -26 -4 -25 -3 7 13 19 10 38 18 42 18 3 1 10
5 15 10 5 5 3 6 -4 2 -8 -4 -13 -1 -13 8 0 8 -3 22 -7 32 -4 12 -3 15 5 10 7
-4 12 -1 12 10 0 14 -3 15 -17 3 -10 -7 -26 -22 -35 -34 l-18 -20 0 22 c0 12
4 24 8 27 7 4 8 28 2 86 -2 21 -4 19 -9 -10 l-7 -35 -17 33 c-16 30 -27 40
-27 26z m26 -185 c-4 -32 -20 -57 -28 -42 -5 8 19 73 27 73 2 0 3 -14 1 -31z"/>
<path d="M1356 2765 c-20 -15 -20 -15 0 -15 18 0 18 -1 -2 -18 -11 -9 -26 -30
-32 -45 l-12 -28 24 18 c28 22 60 73 44 73 -7 0 -6 5 2 15 16 19 1 19 -24 0z"/>
<path d="M1292 2718 c-15 -15 -16 -48 -2 -48 11 0 11 2 15 38 3 26 3 26 -13
10z"/>
<path d="M1212 2286 c-41 -16 -52 -25 -48 -38 2 -10 0 -21 -5 -24 -5 -3 -9
-10 -9 -15 0 -6 15 -2 33 9 27 17 53 21 157 23 69 2 131 0 138 -4 25 -16 12
22 -15 43 -25 19 -36 21 -98 17 -38 -3 -81 -8 -95 -11 -19 -5 -21 -4 -6 2 11
5 15 11 10 14 -5 2 -33 -5 -62 -16z"/>
<path d="M1761 2291 c-8 -5 -20 -7 -26 -5 -12 5 -30 -24 -20 -34 2 -3 7 3 11
12 6 14 8 14 33 -3 17 -12 52 -20 106 -25 74 -6 118 -10 138 -14 4 -1 7 -9 7
-17 0 -8 5 -15 10 -15 19 0 10 37 -15 64 -16 17 -35 26 -57 27 -18 1 -42 3
-53 4 -11 2 -42 6 -70 9 -27 4 -56 3 -64 -3z"/>
<path d="M1280 2156 c-19 -7 -39 -13 -45 -13 -5 0 -11 -7 -13 -17 -3 -14 1
-16 25 -10 15 4 31 12 35 17 4 6 13 4 23 -6 13 -13 35 -17 96 -17 89 0 94 8
24 40 -50 23 -94 24 -145 6z m146 -21 c18 -14 18 -14 -8 -15 -18 0 -28 5 -28
15 0 19 11 19 36 0z"/>
<path d="M1790 2130 c0 -23 5 -31 23 -35 33 -7 58 -1 69 18 11 21 32 23 24 2
-3 -10 1 -15 12 -15 9 0 27 -3 40 -6 18 -5 21 -3 16 10 -4 9 -9 15 -11 12 -3
-2 -25 6 -50 20 -26 13 -63 24 -84 24 -37 0 -39 -2 -39 -30z"/>
<path d="M2054 1858 c-4 -7 -7 -27 -5 -45 2 -24 -5 -43 -27 -71 -16 -20 -35
-54 -41 -74 -7 -21 -23 -57 -35 -80 -22 -42 -38 -88 -30 -88 10 0 53 82 74
140 13 36 34 74 46 86 14 14 24 39 28 78 8 59 4 77 -10 54z"/>
<path d="M1695 1760 c-4 -6 -11 -7 -17 -4 -6 4 -9 1 -6 -6 7 -22 26 -23 38 -1
11 21 -3 31 -15 11z"/>
<path d="M1330 1663 c0 -8 97 -103 105 -103 3 0 16 -10 30 -22 21 -18 35 -21
92 -19 65 2 142 18 153 31 3 4 12 11 21 16 26 14 92 75 87 79 -11 11 -67 -21
-84 -47 -12 -18 -25 -27 -36 -24 -10 2 -18 1 -18 -2 0 -15 -68 -36 -122 -38
-48 -2 -61 1 -83 22 -14 13 -28 23 -31 23 -8 0 -54 58 -54 69 0 5 -10 12 -22
16 -30 8 -38 7 -38 -1z"/>
<path d="M1227 1629 c4 -13 12 -33 18 -44 7 -11 16 -33 20 -50 4 -16 10 -24
12 -18 6 16 -25 102 -43 122 -11 12 -12 10 -7 -10z"/>
<path d="M1475 1629 c39 -11 89 -23 113 -26 29 -4 42 -10 43 -22 0 -12 2 -11
8 4 4 11 21 23 37 27 17 4 7 6 -27 3 -37 -3 -78 2 -125 15 -38 11 -80 20 -94
19 -14 0 7 -9 45 -20z"/>
<path d="M1148 1453 c-47 -91 -48 -92 -149 -160 -144 -96 -136 -93 -219 -91
-119 3 -160 -15 -334 -152 -45 -36 -56 -50 -53 -68 4 -19 -2 -26 -32 -38 -21
-8 -46 -30 -61 -52 -13 -20 -57 -76 -97 -124 -40 -47 -73 -89 -73 -93 0 -11
-61 -98 -92 -131 -17 -18 -28 -39 -26 -48 5 -26 59 29 132 137 21 31 42 57 47
57 5 0 9 6 9 13 0 8 20 35 44 60 24 25 42 48 40 50 -2 2 7 14 21 27 14 13 25
30 25 37 0 8 8 17 17 20 27 11 64 46 74 71 5 12 16 22 24 22 9 0 14 4 11 9 -7
11 18 33 27 24 4 -3 7 0 7 8 0 20 33 46 99 81 31 16 64 37 73 45 14 13 20 13
33 3 10 -8 15 -9 15 -1 0 7 20 10 55 10 33 -1 61 4 72 12 15 12 16 12 8 -1 -7
-12 -3 -11 18 3 24 15 27 16 27 2 0 -9 5 -13 10 -10 6 4 8 11 5 16 -4 5 5 14
19 21 14 6 26 15 26 20 0 5 5 6 10 3 6 -3 13 0 16 9 3 8 19 18 35 21 16 4 29
11 29 16 0 5 6 9 13 9 11 0 78 69 99 103 14 22 19 -2 11 -49 -5 -27 -5 -69 -1
-93 4 -24 5 -60 3 -80 -5 -38 10 -95 32 -122 10 -12 11 -23 3 -43 -5 -15 -6
-25 -1 -22 12 8 74 -19 91 -38 7 -9 18 -16 25 -16 28 0 1 -126 -65 -300 -34
-88 -46 -140 -32 -140 5 0 13 10 17 23 10 34 33 -71 36 -167 1 -59 10 -104 35
-178 18 -54 36 -114 40 -133 7 -37 24 -48 24 -16 0 10 -9 47 -19 82 -10 35
-22 78 -26 94 -3 17 -13 37 -20 45 -9 10 -16 49 -19 110 -2 52 -9 108 -15 123
-15 40 -14 113 3 146 24 46 77 213 83 262 5 44 4 47 -33 75 -22 16 -43 35 -47
41 -4 7 -13 13 -18 13 -16 0 -40 27 -44 51 -3 12 -9 37 -15 55 -6 18 -10 41
-9 51 2 10 0 39 -4 64 -5 31 -3 60 5 85 10 27 12 68 8 134 l-5 95 -47 -92z"/>
<path d="M1906 1429 c-6 -54 -4 -66 23 -123 17 -34 31 -77 31 -94 0 -17 4 -33
9 -36 4 -3 11 -36 14 -74 l7 -69 -65 -66 c-52 -52 -61 -66 -47 -72 11 -4 29 7
56 35 27 29 45 40 58 36 17 -4 19 -1 14 18 -3 13 1 37 10 54 11 23 12 36 5 50
-5 10 -10 27 -9 38 1 34 -32 165 -47 187 -8 12 -15 32 -15 46 0 21 3 20 26
-15 31 -46 46 -57 56 -41 4 7 11 1 17 -16 6 -16 15 -26 20 -22 5 3 12 1 16 -5
4 -6 11 -8 16 -5 5 4 9 2 9 -3 0 -5 15 -15 33 -23 17 -7 48 -26 68 -42 36 -28
89 -43 89 -25 0 5 9 4 19 -2 11 -5 36 -10 55 -10 32 0 72 -14 86 -31 3 -3 29
-17 58 -30 28 -13 52 -28 52 -32 0 -5 5 -5 10 -2 6 3 10 2 10 -3 0 -5 14 -23
30 -40 17 -18 30 -37 30 -44 0 -7 16 -28 35 -47 19 -19 35 -40 35 -47 0 -7 4
-14 9 -16 5 -1 11 -10 13 -18 2 -8 11 -21 20 -28 9 -6 19 -26 23 -43 6 -24 11
-30 26 -26 15 4 23 -3 33 -26 18 -44 112 -142 136 -143 11 -1 20 0 20 2 0 2
-20 26 -45 54 -25 28 -52 63 -62 78 -9 15 -36 47 -59 72 -24 25 -50 61 -58 81
-8 20 -31 50 -51 67 -19 17 -35 40 -35 51 0 25 -57 81 -133 132 -91 61 -141
79 -217 79 -53 0 -74 5 -101 23 -56 38 -197 117 -208 117 -6 0 -23 19 -38 43
-15 23 -40 59 -54 79 l-26 38 -7 -61z"/>
<path d="M1762 1328 c-35 -56 -77 -88 -133 -104 -86 -23 -178 -4 -236 49 -13
11 -23 16 -23 10 0 -16 42 -51 82 -68 43 -17 163 -20 205 -4 15 5 41 22 57 37
32 30 80 101 73 108 -3 3 -14 -10 -25 -28z"/>
<path d="M1880 1254 c-16 -104 -51 -192 -103 -261 -49 -65 -69 -106 -41 -82 8
7 30 33 47 58 17 25 36 51 43 58 26 27 62 121 67 175 1 9 4 15 8 12 9 -5 17
63 11 93 -8 42 -19 24 -32 -53z"/>
<path d="M1212 1260 c1 -69 22 -151 48 -182 11 -13 38 -47 61 -76 49 -64 62
-63 21 2 -16 25 -32 43 -35 40 -11 -11 -46 60 -58 116 -6 30 -17 78 -24 105
l-14 50 1 -55z"/>
<path d="M1938 1213 c-2 -10 -1 -34 3 -53 6 -31 6 -30 8 18 1 52 -3 67 -11 35z"/>
<path d="M1956 1094 c-4 -31 -5 -59 -2 -61 2 -3 8 21 11 52 4 31 5 58 3 61 -3
2 -8 -21 -12 -52z"/>
<path d="M1930 1105 c-2 -11 -3 -26 -2 -34 0 -8 -8 -26 -19 -39 -10 -13 -16
-29 -12 -36 5 -7 9 -5 11 7 2 9 8 15 13 11 5 -3 9 -2 8 3 -1 4 1 20 5 34 4 15
6 38 3 50 -4 21 -5 21 -7 4z"/>
<path d="M1870 1074 c0 -9 -22 -62 -49 -118 -81 -167 -123 -277 -162 -431 -12
-49 -26 -92 -30 -95 -5 -3 -11 -44 -15 -90 -4 -47 -4 -82 0 -79 5 5 20 65 30
119 3 20 27 93 35 105 3 6 4 20 2 33 -1 12 3 22 9 22 6 0 9 4 6 9 -3 4 -1 21
4 37 5 16 19 62 31 102 12 39 25 72 30 72 5 0 9 11 9 24 0 29 35 109 55 126 8
7 15 9 15 4 1 -18 27 52 34 91 13 72 13 85 5 85 -5 0 -9 -7 -9 -16z"/>
<path d="M1161 923 c-14 -27 -33 -60 -44 -75 -10 -16 -16 -28 -13 -28 11 0 56
56 56 70 0 8 9 30 20 48 11 17 16 32 12 32 -4 0 -18 -21 -31 -47z"/>
<path d="M1733 896 c-17 -8 -23 -19 -22 -41 1 -21 3 -24 6 -10 3 11 14 30 26
43 23 24 22 25 -10 8z"/>
<path d="M1534 868 c31 -17 113 -21 134 -7 17 12 9 14 -66 15 -54 1 -78 -2
-68 -8z"/>
<path d="M1830 827 c0 -16 7 -35 15 -43 19 -19 19 -6 0 37 l-14 34 -1 -28z"/>
<path d="M1360 745 c0 -3 11 -23 25 -45 14 -22 25 -46 25 -55 0 -8 5 -15 10
-15 6 0 10 -7 10 -15 0 -8 4 -23 9 -33 15 -30 29 -66 42 -107 6 -22 18 -52 25
-67 17 -34 8 -61 -17 -53 -13 4 -19 1 -19 -9 0 -9 4 -15 9 -14 9 3 11 -2 11
-24 0 -9 -3 -8 -10 2 -7 12 -12 12 -21 3 -10 -10 -9 -14 4 -19 9 -3 17 -13 17
-22 0 -12 -3 -13 -12 -4 -16 16 -28 15 -28 -3 0 -8 7 -15 15 -15 16 0 20 -12
8 -23 -3 -4 -12 -2 -19 4 -8 7 -14 7 -19 -1 -4 -7 2 -14 13 -17 13 -3 19 -10
15 -20 -4 -10 -9 -11 -16 -4 -15 15 -27 14 -27 -4 0 -8 7 -15 16 -15 12 0 15
-6 10 -24 -3 -14 -2 -28 4 -31 5 -3 10 -31 10 -61 0 -45 3 -54 18 -53 10 0 12
3 5 6 -7 2 -13 16 -13 29 0 20 5 24 29 24 25 0 30 -5 34 -28 4 -25 4 -24 6 6
1 35 15 67 38 90 14 15 15 44 2 82 -6 19 -7 15 -3 -15 4 -31 0 -47 -14 -65
-10 -14 -21 -33 -25 -42 -4 -11 -17 -18 -32 -18 -19 0 -28 8 -38 32 -11 28 -9
42 23 142 31 93 40 112 58 114 16 3 22 -2 21 -15 0 -10 -3 -13 -5 -6 -4 8 -12
5 -25 -8 -12 -12 -18 -24 -14 -27 4 -4 13 2 21 13 15 19 15 19 9 -5 -3 -14 -1
-37 5 -50 l10 -25 -5 26 c-2 15 0 41 7 59 10 29 9 34 -12 50 -14 11 -20 22
-15 30 4 7 2 15 -4 20 -11 6 -41 96 -43 128 -1 6 -4 12 -8 12 -3 0 -6 10 -7
22 -1 11 -6 24 -12 27 -5 4 -13 19 -16 34 -4 15 -11 27 -16 27 -5 0 -9 7 -9
14 0 8 -11 26 -24 40 -22 25 -36 32 -36 21z"/>
<path d="M1782 602 c-12 -26 -55 -122 -96 -214 -62 -136 -79 -185 -91 -260
-29 -179 -16 -174 21 8 18 88 39 155 65 211 22 46 39 87 39 92 0 5 6 16 13 23
14 14 80 179 74 184 -2 2 -13 -17 -25 -44z"/>
<path d="M1225 387 c-15 -17 -17 -44 -5 -52 6 -4 10 -3 9 2 -1 4 1 16 5 25 10
23 4 39 -9 25z"/>
<path d="M1171 280 c0 -8 6 -28 14 -45 10 -23 13 -25 14 -10 0 11 -6 31 -14
45 -8 14 -14 19 -14 10z"/>
<path d="M1238 234 c4 -29 6 -34 14 -20 5 9 6 25 3 36 -11 33 -21 22 -17 -16z"/>
<path d="M1210 174 c-1 -16 55 -174 61 -174 3 0 -6 39 -22 86 -27 82 -39 109
-39 88z"/>
</g>
</svg>
